#define add_width 32
#define add_height 16
static char add_bits[] = {
   0xfe, 0xff, 0xff, 0x7f, 0x01, 0x00, 0x00, 0x80, 0x01, 0x00, 0x00, 0x80,
   0x01, 0x00, 0x00, 0xc0, 0x01, 0xe7, 0x79, 0xc0, 0x81, 0x28, 0x8a, 0xc0,
   0x81, 0x28, 0x8a, 0xc0, 0x81, 0x2f, 0x8a, 0xc0, 0x81, 0x28, 0x8a, 0xc0,
   0x81, 0x28, 0x8a, 0xc0, 0x81, 0xe8, 0x79, 0xc0, 0x01, 0x00, 0x00, 0xc0,
   0x01, 0x00, 0x00, 0xc0, 0x01, 0x00, 0x00, 0xc0, 0xf9, 0xff, 0xff, 0xbf,
   0xfe, 0xff, 0xff, 0x7f};
