#define all_width 32
#define all_height 16
static char all_bits[] = {
   0xfe, 0xff, 0xff, 0x7f, 0x01, 0x00, 0x00, 0x80, 0x01, 0x00, 0x00, 0x80,
   0x01, 0x00, 0x00, 0xc0, 0x01, 0x4e, 0x10, 0xc0, 0x01, 0x51, 0x10, 0xc0,
   0x01, 0x51, 0x10, 0xc0, 0x01, 0x5f, 0x10, 0xc0, 0x01, 0x51, 0x10, 0xc0,
   0x01, 0x51, 0x10, 0xc0, 0x01, 0xd1, 0xf7, 0xc1, 0x01, 0x00, 0x00, 0xc0,
   0x01, 0x00, 0x00, 0xc0, 0x01, 0x00, 0x00, 0xc0, 0xf9, 0xff, 0xff, 0xbf,
   0xfe, 0xff, 0xff, 0x7f};
