#define big_width 32
#define big_height 16
static char big_bits[] = {
   0xfe, 0xff, 0xff, 0x7f, 0x01, 0x00, 0x00, 0x80, 0x01, 0x00, 0x00, 0x80,
   0x01, 0x00, 0x00, 0xc0, 0x81, 0xc7, 0x71, 0xc0, 0x81, 0x88, 0x88, 0xc0,
   0x81, 0x88, 0x08, 0xc0, 0x81, 0x87, 0xe8, 0xc0, 0x81, 0x88, 0x88, 0xc0,
   0x81, 0x88, 0x88, 0xc0, 0x81, 0xc7, 0x71, 0xc0, 0x01, 0x00, 0x00, 0xc0,
   0x01, 0x00, 0x00, 0xc0, 0x01, 0x00, 0x00, 0xc0, 0xf9, 0xff, 0xff, 0xbf,
   0xfe, 0xff, 0xff, 0x7f};
