#define cfg_width 32
#define cfg_height 16
static char cfg_bits[] = {
   0xfe, 0xff, 0xff, 0x7f, 0x01, 0x00, 0x00, 0x80, 0x01, 0x00, 0x00, 0x80,
   0x01, 0x00, 0x00, 0xc0, 0x01, 0xe7, 0x73, 0xc0, 0x81, 0x28, 0x88, 0xc0,
   0x81, 0x20, 0x08, 0xc0, 0x81, 0xe0, 0xe9, 0xc0, 0x81, 0x20, 0x88, 0xc0,
   0x81, 0x28, 0x88, 0xc0, 0x01, 0x27, 0x70, 0xc0, 0x01, 0x00, 0x00, 0xc0,
   0x01, 0x00, 0x00, 0xc0, 0x01, 0x00, 0x00, 0xc0, 0xf9, 0xff, 0xff, 0xbf,
   0xfe, 0xff, 0xff, 0x7f};
