#define def_width 32
#define def_height 16
static char def_bits[] = {
   0xfe, 0xff, 0xff, 0x7f, 0x01, 0x00, 0x00, 0x80, 0x01, 0x00, 0x00, 0x80,
   0x01, 0x00, 0x00, 0xc0, 0x81, 0xe7, 0xfb, 0xc0, 0x81, 0x28, 0x08, 0xc0,
   0x81, 0x28, 0x08, 0xc0, 0x81, 0xe8, 0x79, 0xc0, 0x81, 0x28, 0x08, 0xc0,
   0x81, 0x28, 0x08, 0xc0, 0x81, 0xe7, 0x0b, 0xc0, 0x01, 0x00, 0x00, 0xc0,
   0x01, 0x00, 0x00, 0xc0, 0x01, 0x00, 0x00, 0xc0, 0xf9, 0xff, 0xff, 0xbf,
   0xfe, 0xff, 0xff, 0x7f};
