#define direction_width 32
#define direction_height 16
static char direction_bits[] = {
   0xfe, 0xff, 0xff, 0x7f, 0x01, 0x00, 0x00, 0x80, 0x01, 0x00, 0x00, 0x80,
   0x01, 0x00, 0x00, 0xc0, 0x01, 0x00, 0x08, 0xc0, 0x01, 0x00, 0x18, 0xc0,
   0x01, 0x00, 0x38, 0xc0, 0x01, 0xfe, 0x7f, 0xc0, 0x01, 0x00, 0x38, 0xc0,
   0x01, 0x00, 0x18, 0xc0, 0x01, 0x00, 0x08, 0xc0, 0x01, 0x00, 0x00, 0xc0,
   0x01, 0x00, 0x00, 0xc0, 0x01, 0x00, 0x00, 0xc0, 0xf9, 0xff, 0xff, 0xbf,
   0xfe, 0xff, 0xff, 0x7f};
