#define done_width 32
#define done_height 16
static char done_bits[] = {
   0xfe, 0xff, 0xff, 0x7f, 0x01, 0x00, 0x00, 0x80, 0x01, 0x00, 0x00, 0x80,
   0x01, 0x00, 0x00, 0xc0, 0xf1, 0x38, 0xd1, 0xc7, 0x11, 0x45, 0x51, 0xc0,
   0x11, 0x45, 0x53, 0xc0, 0x11, 0x45, 0xd5, 0xc3, 0x11, 0x45, 0x59, 0xc0,
   0x11, 0x45, 0x51, 0xc0, 0xf1, 0x38, 0xd1, 0xc7, 0x01, 0x00, 0x00, 0xc0,
   0x01, 0x00, 0x00, 0xc0, 0x01, 0x00, 0x00, 0xc0, 0xf9, 0xff, 0xff, 0xbf,
   0xfe, 0xff, 0xff, 0x7f};
