#define double_width 32
#define double_height 16
static char double_bits[] = {
   0xfe, 0xff, 0xff, 0x7f, 0x01, 0x00, 0x00, 0x80, 0x01, 0x00, 0x00, 0x80,
   0x01, 0x00, 0x00, 0xc0, 0x01, 0x1c, 0x00, 0xc0, 0x01, 0x22, 0x22, 0xc0,
   0x01, 0x20, 0x14, 0xc0, 0x01, 0x1c, 0x08, 0xc0, 0x01, 0x02, 0x14, 0xc0,
   0x01, 0x02, 0x22, 0xc0, 0x01, 0x3e, 0x00, 0xc0, 0x01, 0x00, 0x00, 0xc0,
   0x01, 0x00, 0x00, 0xc0, 0x01, 0x00, 0x00, 0xc0, 0xf9, 0xff, 0xff, 0xbf,
   0xfe, 0xff, 0xff, 0x7f};
