#define file_width 32
#define file_height 16
static char file_bits[] = {
   0xfe, 0xff, 0xff, 0x7f, 0x01, 0x00, 0x00, 0x80, 0x01, 0x00, 0x00, 0x80,
   0x01, 0x00, 0x00, 0xc0, 0xf1, 0x39, 0xc1, 0xc7, 0x11, 0x10, 0x41, 0xc0,
   0x11, 0x10, 0x41, 0xc0, 0x71, 0x10, 0xc1, 0xc1, 0x11, 0x10, 0x41, 0xc0,
   0x11, 0x10, 0x41, 0xc0, 0x11, 0x38, 0xdf, 0xc7, 0x01, 0x00, 0x00, 0xc0,
   0x01, 0x00, 0x00, 0xc0, 0x01, 0x00, 0x00, 0xc0, 0xf9, 0xff, 0xff, 0xbf,
   0xfe, 0xff, 0xff, 0x7f};
