#define first_width 16
#define first_height 16
static char first_bits[] = {
 0xfe,0x7f,0x01,0x80,0x01,0x80,0x31,0xc4,0x31,0xc6,0x31,0xc7,0xb1,0xc7,0xf1,
 0xc7,0xb1,0xc7,0x31,0xc7,0x31,0xc6,0x31,0xc4,0x01,0xc0,0x01,0xc0,0xf9,0xff,
 0xfe,0x7f};
