#define flags_width 16
#define flags_height 16
static char flags_bits[] = {
 0x00,0x00,0x7e,0x00,0x86,0x00,0x06,0x03,0x0c,0x7c,0x0c,0x40,0x0c,0x20,0x7c,
 0x20,0x98,0x41,0x18,0x86,0x18,0x78,0x18,0x00,0x30,0x00,0x30,0x00,0x30,0x00,
 0x00,0x00};
