#define goto_width 32
#define goto_height 16
static char goto_bits[] = {
   0xfe, 0xff, 0xff, 0x7f, 0x01, 0x00, 0x00, 0x80, 0x01, 0x00, 0x00, 0x80,
   0x01, 0x00, 0x00, 0xc0, 0xe1, 0x38, 0x9f, 0xc3, 0x11, 0x45, 0x44, 0xc4,
   0x11, 0x44, 0x44, 0xc4, 0xd1, 0x45, 0x44, 0xc4, 0x11, 0x45, 0x44, 0xc4,
   0x11, 0x45, 0x44, 0xc4, 0xe1, 0x38, 0x84, 0xc3, 0x01, 0x00, 0x00, 0xc0,
   0x01, 0x00, 0x00, 0xc0, 0x01, 0x00, 0x00, 0xc0, 0xf9, 0xff, 0xff, 0xbf,
   0xfe, 0xff, 0xff, 0x7f};
