#define half_width 32
#define half_height 16
static char half_bits[] = {
   0xfe, 0xff, 0xff, 0x7f, 0x01, 0x00, 0x00, 0x80, 0x01, 0x01, 0x00, 0x80,
   0x81, 0x01, 0x00, 0xc0, 0x41, 0x01, 0x00, 0xc0, 0x01, 0x11, 0x10, 0xc1,
   0x01, 0x09, 0xa0, 0xc0, 0x01, 0x65, 0x40, 0xc0, 0x01, 0x94, 0xa0, 0xc0,
   0x01, 0x82, 0x10, 0xc1, 0x01, 0x61, 0x00, 0xc0, 0x01, 0x10, 0x00, 0xc0,
   0x01, 0xf0, 0x00, 0xc0, 0x01, 0x00, 0x00, 0xc0, 0xf9, 0xff, 0xff, 0xbf,
   0xfe, 0xff, 0xff, 0x7f};
