#define help_width 32
#define help_height 16
static char help_bits[] = {
   0xfe, 0xff, 0xff, 0x7f, 0x01, 0x00, 0x00, 0x80, 0x01, 0x00, 0x00, 0x80,
   0x01, 0x00, 0x00, 0xc0, 0x11, 0x7d, 0xc1, 0xc3, 0x11, 0x05, 0x41, 0xc4,
   0x11, 0x05, 0x41, 0xc4, 0xf1, 0x3d, 0xc1, 0xc3, 0x11, 0x05, 0x41, 0xc0,
   0x11, 0x05, 0x41, 0xc0, 0x11, 0x7d, 0x5f, 0xc0, 0x01, 0x00, 0x00, 0xc0,
   0x01, 0x00, 0x00, 0xc0, 0x01, 0x00, 0x00, 0xc0, 0xf9, 0xff, 0xff, 0xbf,
   0xfe, 0xff, 0xff, 0x7f};
