#define icon_width 32
#define icon_height 16
static char icon_bits[] = {
   0xfe, 0xff, 0xff, 0x7f, 0x01, 0x00, 0x00, 0x80, 0x01, 0x00, 0x00, 0x80,
   0x01, 0x00, 0x00, 0xc0, 0xe1, 0x38, 0x4e, 0xc4, 0x41, 0x44, 0x51, 0xc4,
   0x41, 0x04, 0xd1, 0xc4, 0x41, 0x04, 0x51, 0xc5, 0x41, 0x04, 0x51, 0xc6,
   0x41, 0x44, 0x51, 0xc4, 0xe1, 0x38, 0x4e, 0xc4, 0x01, 0x00, 0x00, 0xc0,
   0x01, 0x00, 0x00, 0xc0, 0x01, 0x00, 0x00, 0xc0, 0xf9, 0xff, 0xff, 0xbf,
   0xfe, 0xff, 0xff, 0x7f};
