#define info_width 32
#define info_height 16
static char info_bits[] = {
   0xfe, 0xff, 0xff, 0x7f, 0x01, 0x00, 0x00, 0x80, 0x01, 0x00, 0x00, 0x80,
   0x01, 0x00, 0x00, 0xc0, 0xe1, 0x44, 0x9f, 0xc3, 0x41, 0x44, 0x41, 0xc4,
   0x41, 0x4c, 0x41, 0xc4, 0x41, 0x54, 0x4f, 0xc4, 0x41, 0x64, 0x41, 0xc4,
   0x41, 0x44, 0x41, 0xc4, 0xe1, 0x44, 0x81, 0xc3, 0x01, 0x00, 0x00, 0xc0,
   0x01, 0x00, 0x00, 0xc0, 0x01, 0x00, 0x00, 0xc0, 0xf9, 0xff, 0xff, 0xbf,
   0xfe, 0xff, 0xff, 0x7f};
