#define init_width 32
#define init_height 16
static char init_bits[] = {
   0xfe, 0xff, 0xff, 0x7f, 0x01, 0x00, 0x00, 0x80, 0x01, 0x00, 0x00, 0x80,
   0x01, 0x00, 0x00, 0xc0, 0xe1, 0x44, 0xce, 0xc7, 0x41, 0x44, 0x04, 0xc1,
   0x41, 0x4c, 0x04, 0xc1, 0x41, 0x54, 0x04, 0xc1, 0x41, 0x64, 0x04, 0xc1,
   0x41, 0x44, 0x04, 0xc1, 0xe1, 0x44, 0x0e, 0xc1, 0x01, 0x00, 0x00, 0xc0,
   0x01, 0x00, 0x00, 0xc0, 0x01, 0x00, 0x00, 0xc0, 0xf9, 0xff, 0xff, 0xbf,
   0xfe, 0xff, 0xff, 0x7f};
