#define jog_width 32
#define jog_height 16
static char jog_bits[] = {
   0xfe, 0xff, 0xff, 0x7f, 0x01, 0x00, 0x00, 0x80, 0x01, 0x00, 0x00, 0x80,
   0x01, 0x00, 0x00, 0xc0, 0x01, 0x9f, 0xe3, 0xc0, 0x01, 0x50, 0x14, 0xc1,
   0x01, 0x50, 0x14, 0xc0, 0x01, 0x50, 0xd4, 0xc1, 0x01, 0x51, 0x14, 0xc1,
   0x01, 0x51, 0x14, 0xc1, 0x01, 0x8e, 0xe3, 0xc0, 0x01, 0x00, 0x00, 0xc0,
   0x01, 0x00, 0x00, 0xc0, 0x01, 0x00, 0x00, 0xc0, 0xf9, 0xff, 0xff, 0xbf,
   0xfe, 0xff, 0xff, 0x7f};
