#define last_width 16
#define last_height 16
static char last_bits[] = {
   0xfe, 0x7f, 0x01, 0x80, 0x01, 0x80, 0x21, 0xcc, 0x61, 0xcc, 0xe1, 0xcc,
   0xe1, 0xcd, 0xe1, 0xcf, 0xe1, 0xcd, 0xe1, 0xcc, 0x61, 0xcc, 0x21, 0xcc,
   0x01, 0xc0, 0x01, 0xc0, 0xf9, 0xff, 0xfe, 0x7f};
