#define lleft_width 32
#define lleft_height 16
static char lleft_bits[] = {
   0xfe, 0xff, 0xff, 0x7f, 0x01, 0x00, 0x00, 0x80, 0x01, 0x00, 0x00, 0x80,
   0x01, 0x00, 0x00, 0xc0, 0x01, 0xc0, 0x18, 0xc0, 0x01, 0x60, 0x0c, 0xc0,
   0x01, 0x30, 0x06, 0xc0, 0x01, 0x18, 0x03, 0xc0, 0x01, 0x30, 0x06, 0xc0,
   0x01, 0x60, 0x0c, 0xc0, 0x01, 0xc0, 0x18, 0xc0, 0x01, 0x00, 0x00, 0xc0,
   0x01, 0x00, 0x00, 0xc0, 0x01, 0x00, 0x00, 0xc0, 0xf9, 0xff, 0xff, 0xbf,
   0xfe, 0xff, 0xff, 0x7f};
