#define load_width 32
#define load_height 16
static char load_bits[] = {
   0xfe, 0xff, 0xff, 0x7f, 0x01, 0x00, 0x00, 0x80, 0x01, 0x00, 0x00, 0x80,
   0x01, 0x00, 0x00, 0xc0, 0x11, 0x38, 0xce, 0xc3, 0x11, 0x44, 0x51, 0xc4,
   0x11, 0x44, 0x51, 0xc4, 0x11, 0x44, 0x5f, 0xc4, 0x11, 0x44, 0x51, 0xc4,
   0x11, 0x44, 0x51, 0xc4, 0xf1, 0x39, 0xd1, 0xc3, 0x01, 0x00, 0x00, 0xc0,
   0x01, 0x00, 0x00, 0xc0, 0x01, 0x00, 0x00, 0xc0, 0xf9, 0xff, 0xff, 0xbf,
   0xfe, 0xff, 0xff, 0x7f};
