#define look_width 32
#define look_height 16
static char look_bits[] = {
   0xfe, 0xff, 0xff, 0x7f, 0x01, 0x00, 0x00, 0x80, 0x01, 0x00, 0x00, 0x80,
   0x01, 0x00, 0x00, 0xc0, 0x11, 0x38, 0x4e, 0xc4, 0x11, 0x44, 0x51, 0xc2,
   0x11, 0x44, 0x51, 0xc1, 0x11, 0x44, 0xd1, 0xc0, 0x11, 0x44, 0x51, 0xc1,
   0x11, 0x44, 0x51, 0xc2, 0xf1, 0x39, 0x4e, 0xc4, 0x01, 0x00, 0x00, 0xc0,
   0x01, 0x00, 0x00, 0xc0, 0x01, 0x00, 0x00, 0xc0, 0xf9, 0xff, 0xff, 0xbf,
   0xfe, 0xff, 0xff, 0x7f};
