#define m_test_width 48
#define m_test_height 16
static char m_test_bits[] = {
   0xfe, 0xff, 0xff, 0xff, 0xff, 0x7f, 0x01, 0x00, 0x00, 0x00, 0x00, 0x80,
   0x01, 0x00, 0x00, 0x00, 0x00, 0x80, 0x01, 0x00, 0x00, 0x00, 0x00, 0xc0,
   0x41, 0x04, 0x7c, 0x9f, 0xf3, 0xc1, 0x41, 0x04, 0x10, 0x41, 0x44, 0xc0,
   0xc1, 0x06, 0x10, 0x41, 0x40, 0xc0, 0x41, 0xe5, 0x10, 0x8f, 0x43, 0xc0,
   0x41, 0x04, 0x10, 0x01, 0x44, 0xc0, 0x41, 0x04, 0x10, 0x41, 0x44, 0xc0,
   0x41, 0x04, 0x10, 0x9f, 0x43, 0xc0, 0x01, 0x00, 0x00, 0x00, 0x00, 0xc0,
   0x01, 0x00, 0x00, 0x00, 0x00, 0xc0, 0x01, 0x00, 0x00, 0x00, 0x00, 0xc0,
   0xf9, 0xff, 0xff, 0xff, 0xff, 0xbf, 0xfe, 0xff, 0xff, 0xff, 0xff, 0x7f};
