#define more_width 32
#define more_height 16
static char more_bits[] = {
   0xfe, 0xff, 0xff, 0x7f, 0x01, 0x00, 0x00, 0x80, 0x01, 0x00, 0x00, 0x80,
   0x01, 0x00, 0x00, 0xc0, 0x11, 0x39, 0xcf, 0xc7, 0xb1, 0x45, 0x51, 0xc0,
   0x51, 0x45, 0x51, 0xc0, 0x11, 0x45, 0xcf, 0xc3, 0x11, 0x45, 0x45, 0xc0,
   0x11, 0x45, 0x49, 0xc0, 0x11, 0x39, 0xd1, 0xc7, 0x01, 0x00, 0x00, 0xc0,
   0x01, 0x00, 0x00, 0xc0, 0x01, 0x00, 0x00, 0xc0, 0xf9, 0xff, 0xff, 0xbf,
   0xfe, 0xff, 0xff, 0x7f};
