#define net_width 32
#define net_height 16
static char net_bits[] = {
   0xfe, 0xff, 0xff, 0x7f, 0x01, 0x00, 0x00, 0x80, 0x01, 0x00, 0x00, 0x80,
   0x01, 0x00, 0x00, 0xc0, 0x81, 0xe8, 0xfb, 0xc0, 0x81, 0x28, 0x20, 0xc0,
   0x81, 0x29, 0x20, 0xc0, 0x81, 0xea, 0x21, 0xc0, 0x81, 0x2c, 0x20, 0xc0,
   0x81, 0x28, 0x20, 0xc0, 0x81, 0xe8, 0x23, 0xc0, 0x01, 0x00, 0x00, 0xc0,
   0x01, 0x00, 0x00, 0xc0, 0x01, 0x00, 0x00, 0xc0, 0xf9, 0xff, 0xff, 0xbf,
   0xfe, 0xff, 0xff, 0x7f};
