#define new_width 32
#define new_height 16
static char new_bits[] = {
   0xfe, 0xff, 0xff, 0x7f, 0x01, 0x00, 0x00, 0x80, 0x01, 0x00, 0x00, 0x80,
   0x01, 0x00, 0x00, 0xc0, 0x81, 0xe8, 0x8b, 0xc0, 0x81, 0x28, 0x88, 0xc0,
   0x81, 0x29, 0x88, 0xc0, 0x81, 0xea, 0xa9, 0xc0, 0x81, 0x2c, 0xa8, 0xc0,
   0x81, 0x28, 0xa8, 0xc0, 0x81, 0xe8, 0x53, 0xc0, 0x01, 0x00, 0x00, 0xc0,
   0x01, 0x00, 0x00, 0xc0, 0x01, 0x00, 0x00, 0xc0, 0xf9, 0xff, 0xff, 0xbf,
   0xfe, 0xff, 0xff, 0x7f};
