#define next_width 16
#define next_height 16
static char next_bits[] = {
 0xfe,0x7f,0x01,0x80,0x01,0x80,0x41,0xc0,0xc1,0xc0,0xc1,0xc1,0xc1,0xc3,0xc1,
 0xc7,0xc1,0xc3,0xc1,0xc1,0xc1,0xc0,0x41,0xc0,0x01,0xc0,0x01,0xc0,0xf9,0xff,
 0xfe,0x7f};
