#define no_width 32
#define no_height 16
static char no_bits[] = {
   0xfe, 0xff, 0xff, 0x7f, 0x01, 0x00, 0x00, 0x80, 0x01, 0x00, 0x00, 0x80,
   0x01, 0x00, 0x00, 0xc0, 0x01, 0x44, 0x1c, 0xc0, 0x01, 0x44, 0x22, 0xc0,
   0x01, 0x4c, 0x22, 0xc0, 0x01, 0x54, 0x22, 0xc0, 0x01, 0x64, 0x22, 0xc0,
   0x01, 0x44, 0x22, 0xc0, 0x01, 0x44, 0x1c, 0xc0, 0x01, 0x00, 0x00, 0xc0,
   0x01, 0x00, 0x00, 0xc0, 0x01, 0x00, 0x00, 0xc0, 0xf9, 0xff, 0xff, 0xbf,
   0xfe, 0xff, 0xff, 0x7f};
