#define norm_width 32
#define norm_height 16
static char norm_bits[] = {
   0xfe, 0xff, 0xff, 0x7f, 0x01, 0x00, 0x00, 0x80, 0x01, 0x00, 0x00, 0x80,
   0x01, 0x00, 0x00, 0xc0, 0x11, 0x39, 0x4f, 0xc4, 0x11, 0x45, 0xd1, 0xc6,
   0x31, 0x45, 0x51, 0xc5, 0x51, 0x45, 0x4f, 0xc4, 0x91, 0x45, 0x45, 0xc4,
   0x11, 0x45, 0x49, 0xc4, 0x11, 0x39, 0x51, 0xc4, 0x01, 0x00, 0x00, 0xc0,
   0x01, 0x00, 0x00, 0xc0, 0x01, 0x00, 0x00, 0xc0, 0xf9, 0xff, 0xff, 0xbf,
   0xfe, 0xff, 0xff, 0x7f};
