#define ok_width 32
#define ok_height 16
static char ok_bits[] = {
   0xfe, 0xff, 0xff, 0x7f, 0x01, 0x00, 0x00, 0x80, 0x01, 0x00, 0x00, 0x80,
   0x01, 0x00, 0x00, 0xc0, 0x01, 0x38, 0x22, 0xc0, 0x01, 0x44, 0x12, 0xc0,
   0x01, 0x44, 0x0a, 0xc0, 0x01, 0x44, 0x06, 0xc0, 0x01, 0x44, 0x0a, 0xc0,
   0x01, 0x44, 0x12, 0xc0, 0x01, 0x38, 0x22, 0xc0, 0x01, 0x00, 0x00, 0xc0,
   0x01, 0x00, 0x00, 0xc0, 0x01, 0x00, 0x00, 0xc0, 0xf9, 0xff, 0xff, 0xbf,
   0xfe, 0xff, 0xff, 0x7f};
