#define on_width 32
#define on_height 16
static char on_bits[] = {
   0xfe, 0xff, 0xff, 0x7f, 0x01, 0x00, 0x00, 0x80, 0x01, 0x00, 0x00, 0x80,
   0x01, 0x00, 0x00, 0xc0, 0x01, 0x38, 0x22, 0xc0, 0x01, 0x44, 0x22, 0xc0,
   0x01, 0x44, 0x26, 0xc0, 0x01, 0x44, 0x2a, 0xc0, 0x01, 0x44, 0x32, 0xc0,
   0x01, 0x44, 0x22, 0xc0, 0x01, 0x38, 0x22, 0xc0, 0x01, 0x00, 0x00, 0xc0,
   0x01, 0x00, 0x00, 0xc0, 0x01, 0x00, 0x00, 0xc0, 0xf9, 0xff, 0xff, 0xbf,
   0xfe, 0xff, 0xff, 0x7f};
