#define open_width 32
#define open_height 16
static char open_bits[] = {
   0xfe, 0xff, 0xff, 0x7f, 0x01, 0x00, 0x00, 0x80, 0x01, 0x00, 0x00, 0x80,
   0x01, 0x00, 0x00, 0xc0, 0xe1, 0x3c, 0x5f, 0xc4, 0x11, 0x45, 0x41, 0xc4,
   0x11, 0x45, 0xc1, 0xc4, 0x11, 0x3d, 0x4f, 0xc5, 0x11, 0x05, 0x41, 0xc6,
   0x11, 0x05, 0x41, 0xc4, 0xe1, 0x04, 0x5f, 0xc4, 0x01, 0x00, 0x00, 0xc0,
   0x01, 0x00, 0x00, 0xc0, 0x01, 0x00, 0x00, 0xc0, 0xf9, 0xff, 0xff, 0xbf,
   0xfe, 0xff, 0xff, 0x7f};
