#define out_width 32
#define out_height 16
static char out_bits[] = {
   0xfe, 0xff, 0xff, 0x7f, 0x01, 0x00, 0x00, 0x80, 0x01, 0x00, 0x00, 0x80,
   0x01, 0x00, 0x00, 0xc0, 0x01, 0x4e, 0xf4, 0xc1, 0x01, 0x51, 0x44, 0xc0,
   0x01, 0x51, 0x44, 0xc0, 0x01, 0x51, 0x44, 0xc0, 0x01, 0x51, 0x44, 0xc0,
   0x01, 0x51, 0x44, 0xc0, 0x01, 0x8e, 0x43, 0xc0, 0x01, 0x00, 0x00, 0xc0,
   0x01, 0x00, 0x00, 0xc0, 0x01, 0x00, 0x00, 0xc0, 0xf9, 0xff, 0xff, 0xbf,
   0xfe, 0xff, 0xff, 0x7f};
