#define pat_width 32
#define pat_height 16
static char pat_bits[] = {
   0xfe, 0xff, 0xff, 0x7f, 0x01, 0x00, 0x00, 0x80, 0x01, 0x00, 0x00, 0x80,
   0x01, 0x00, 0x00, 0xc0, 0x81, 0xc7, 0xf9, 0xc0, 0x81, 0x28, 0x22, 0xc0,
   0x81, 0x28, 0x22, 0xc0, 0x81, 0xe7, 0x23, 0xc0, 0x81, 0x20, 0x22, 0xc0,
   0x81, 0x20, 0x22, 0xc0, 0x81, 0x20, 0x22, 0xc0, 0x01, 0x00, 0x00, 0xc0,
   0x01, 0x00, 0x00, 0xc0, 0x01, 0x00, 0x00, 0xc0, 0xf9, 0xff, 0xff, 0xbf,
   0xfe, 0xff, 0xff, 0x7f};
