#define plus_width 15
#define plus_height 15
static char plus_bits[] = {
   0xfe, 0x3f, 0x01, 0x40, 0x01, 0x40, 0x01, 0x60, 0xc1, 0x60, 0xc1, 0x60,
   0xf1, 0x63, 0xf1, 0x63, 0xc1, 0x60, 0xc1, 0x60, 0x01, 0x60, 0x01, 0x60,
   0x01, 0x60, 0xf9, 0x5f, 0xfe, 0x3f};
