#define prev_width 16
#define prev_height 16
static char prev_bits[] = {
 0xfe,0x7f,0x01,0x80,0x01,0x80,0x01,0xc1,0x81,0xc1,0xc1,0xc1,0xe1,0xc1,0xf1,
 0xc1,0xe1,0xc1,0xc1,0xc1,0x81,0xc1,0x01,0xc1,0x01,0xc0,0x01,0xc0,0xf9,0xff,
 0xfe,0x7f};
