#define res_width 32
#define res_height 16
static char res_bits[] = {
   0xfe, 0xff, 0xff, 0x7f, 0x01, 0x00, 0x00, 0x80, 0x01, 0x00, 0x00, 0x80,
   0x01, 0x00, 0x00, 0xc0, 0x81, 0xe7, 0xf3, 0xc0, 0x81, 0x28, 0x08, 0xc0,
   0x81, 0x28, 0x08, 0xc0, 0x81, 0xe7, 0x71, 0xc0, 0x81, 0x22, 0x80, 0xc0,
   0x81, 0x24, 0x80, 0xc0, 0x81, 0xe8, 0x7b, 0xc0, 0x01, 0x00, 0x00, 0xc0,
   0x01, 0x00, 0x00, 0xc0, 0x01, 0x00, 0x00, 0xc0, 0xf9, 0xff, 0xff, 0xbf,
   0xfe, 0xff, 0xff, 0x7f};
