#define right_width 32
#define right_height 16
static char right_bits[] = {
   0xfe, 0xff, 0xff, 0x7f, 0x01, 0x00, 0x00, 0x80, 0x01, 0x00, 0x00, 0x80,
   0x01, 0x00, 0x00, 0xc0, 0x01, 0x80, 0x01, 0xc0, 0x01, 0x00, 0x03, 0xc0,
   0x01, 0x00, 0x06, 0xc0, 0x01, 0x00, 0x0c, 0xc0, 0x01, 0x00, 0x06, 0xc0,
   0x01, 0x00, 0x03, 0xc0, 0x01, 0x80, 0x01, 0xc0, 0x01, 0x00, 0x00, 0xc0,
   0x01, 0x00, 0x00, 0xc0, 0x01, 0x00, 0x00, 0xc0, 0xf9, 0xff, 0xff, 0xbf,
   0xfe, 0xff, 0xff, 0x7f};
