#define save_width 32
#define save_height 16
static char save_bits[] = {
   0xfe, 0xff, 0xff, 0x7f, 0x01, 0x00, 0x00, 0x80, 0x01, 0x00, 0x00, 0x80,
   0x01, 0x00, 0x00, 0xc0, 0xe1, 0x38, 0xd1, 0xc7, 0x11, 0x45, 0x51, 0xc0,
   0x11, 0x44, 0x51, 0xc0, 0xe1, 0x7c, 0xd1, 0xc3, 0x01, 0x45, 0x51, 0xc0,
   0x11, 0x45, 0x4a, 0xc0, 0xe1, 0x44, 0xc4, 0xc7, 0x01, 0x00, 0x00, 0xc0,
   0x01, 0x00, 0x00, 0xc0, 0x01, 0x00, 0x00, 0xc0, 0xf9, 0xff, 0xff, 0xbf,
   0xfe, 0xff, 0xff, 0x7f};
