#define selected_width 16
#define selected_height 16
static char selected_bits[] = {
   0xff, 0xff, 0xff, 0xff, 0x07, 0xe0, 0x0b, 0xd0, 0x13, 0xc8, 0x23, 0xc4,
   0x43, 0xc2, 0x83, 0xc1, 0x83, 0xc1, 0x43, 0xc2, 0x23, 0xc4, 0x13, 0xc8,
   0x0b, 0xd0, 0x07, 0xe0, 0xff, 0xff, 0xff, 0xff};
