#define set_width 32
#define set_height 16
static char set_bits[] = {
   0xfe, 0xff, 0xff, 0x7f, 0x01, 0x00, 0x00, 0x80, 0x01, 0x00, 0x00, 0x80,
   0x01, 0x00, 0x00, 0xc0, 0x81, 0xe3, 0xf3, 0xc1, 0x41, 0x24, 0x40, 0xc0,
   0x41, 0x20, 0x40, 0xc0, 0x81, 0xe3, 0x41, 0xc0, 0x01, 0x24, 0x40, 0xc0,
   0x41, 0x24, 0x40, 0xc0, 0x81, 0xe3, 0x43, 0xc0, 0x01, 0x00, 0x00, 0xc0,
   0x01, 0x00, 0x00, 0xc0, 0x01, 0x00, 0x00, 0xc0, 0xf9, 0xff, 0xff, 0xbf,
   0xfe, 0xff, 0xff, 0x7f};
