#define show_width 32
#define show_height 16
static char show_bits[] = {
   0xfe, 0xff, 0xff, 0x7f, 0x01, 0x00, 0x00, 0x80, 0x01, 0x00, 0x00, 0x80,
   0x01, 0x00, 0x00, 0xc0, 0xe1, 0x44, 0x4e, 0xc4, 0x11, 0x45, 0x51, 0xc4,
   0x11, 0x44, 0x51, 0xc4, 0xe1, 0x7c, 0x51, 0xc5, 0x01, 0x45, 0x51, 0xc5,
   0x11, 0x45, 0x51, 0xc5, 0xe1, 0x44, 0x8e, 0xc2, 0x01, 0x00, 0x00, 0xc0,
   0x01, 0x00, 0x00, 0xc0, 0x01, 0x00, 0x00, 0xc0, 0xf9, 0xff, 0xff, 0xbf,
   0xfe, 0xff, 0xff, 0x7f};
