#define small_width 32
#define small_height 16
static char small_bits[] = {
   0xfe, 0xff, 0xff, 0x7f, 0x01, 0x00, 0x00, 0x80, 0x01, 0x00, 0x00, 0x80,
   0x01, 0x00, 0x00, 0xc0, 0x39, 0x91, 0x13, 0xc2, 0x45, 0x5b, 0x14, 0xc2,
   0x05, 0x55, 0x14, 0xc2, 0x39, 0xd1, 0x17, 0xc2, 0x41, 0x51, 0x14, 0xc2,
   0x45, 0x51, 0x14, 0xc2, 0x39, 0x51, 0xf4, 0xde, 0x01, 0x00, 0x00, 0xc0,
   0x01, 0x00, 0x00, 0xc0, 0x01, 0x00, 0x00, 0xc0, 0xf9, 0xff, 0xff, 0xbf,
   0xfe, 0xff, 0xff, 0x7f};
