#define stop_width 32
#define stop_height 16
static char stop_bits[] = {
   0xfe, 0xff, 0xff, 0x7f, 0x01, 0x00, 0x00, 0x80, 0x01, 0x00, 0x00, 0x80,
   0x01, 0x00, 0x00, 0xc0, 0xe1, 0x7c, 0xce, 0xc3, 0x11, 0x11, 0x51, 0xc4,
   0x11, 0x10, 0x51, 0xc4, 0xe1, 0x10, 0xd1, 0xc3, 0x01, 0x11, 0x51, 0xc0,
   0x11, 0x11, 0x51, 0xc0, 0xe1, 0x10, 0x4e, 0xc0, 0x01, 0x00, 0x00, 0xc0,
   0x01, 0x00, 0x00, 0xc0, 0x01, 0x00, 0x00, 0xc0, 0xf9, 0xff, 0xff, 0xbf,
   0xfe, 0xff, 0xff, 0x7f};
