#define te_width 32
#define te_height 16
static char te_bits[] = {
   0xfe, 0xff, 0xff, 0x7f, 0x01, 0x00, 0x00, 0x80, 0x01, 0x00, 0x00, 0x80,
   0x01, 0x00, 0x00, 0xc0, 0x01, 0x1f, 0xf0, 0xc1, 0x01, 0x04, 0x10, 0xc0,
   0x01, 0x04, 0x10, 0xc0, 0x01, 0x84, 0xf3, 0xc0, 0x01, 0x04, 0x10, 0xc0,
   0x01, 0x04, 0x10, 0xc0, 0x01, 0x04, 0xf0, 0xc1, 0x01, 0x00, 0x00, 0xc0,
   0x01, 0x00, 0x00, 0xc0, 0x01, 0x00, 0x00, 0xc0, 0xf9, 0xff, 0xff, 0xbf,
   0xfe, 0xff, 0xff, 0x7f};
