#define test_width 32
#define test_height 16
static char test_bits[] = {
   0xfe, 0xff, 0xff, 0x7f, 0x01, 0x00, 0x00, 0x80, 0x01, 0x00, 0x00, 0x80,
   0x01, 0x00, 0x00, 0xc0, 0xf1, 0x7d, 0xce, 0xc7, 0x41, 0x04, 0x11, 0xc1,
   0x41, 0x04, 0x01, 0xc1, 0x41, 0x3c, 0x0e, 0xc1, 0x41, 0x04, 0x10, 0xc1,
   0x41, 0x04, 0x11, 0xc1, 0x41, 0x7c, 0x0e, 0xc1, 0x01, 0x00, 0x00, 0xc0,
   0x01, 0x00, 0x00, 0xc0, 0x01, 0x00, 0x00, 0xc0, 0xf9, 0xff, 0xff, 0xbf,
   0xfe, 0xff, 0xff, 0x7f};
