#define txt_width 32
#define txt_height 16
static char txt_bits[] = {
   0xfe, 0xff, 0xff, 0x7f, 0x01, 0x00, 0x00, 0x80, 0x01, 0x00, 0x00, 0x80,
   0x01, 0x00, 0x00, 0xc0, 0x81, 0x2f, 0xfa, 0xc0, 0x01, 0x22, 0x22, 0xc0,
   0x01, 0x42, 0x21, 0xc0, 0x01, 0x82, 0x20, 0xc0, 0x01, 0x42, 0x21, 0xc0,
   0x01, 0x22, 0x22, 0xc0, 0x01, 0x22, 0x22, 0xc0, 0x01, 0x00, 0x00, 0xc0,
   0x01, 0x00, 0x00, 0xc0, 0x01, 0x00, 0x00, 0xc0, 0xf9, 0xff, 0xff, 0xbf,
   0xfe, 0xff, 0xff, 0x7f};
