#define ty_width 32
#define ty_height 16
static char ty_bits[] = {
   0xfe, 0xff, 0xff, 0x7f, 0x01, 0x00, 0x00, 0x80, 0x01, 0x00, 0x00, 0x80,
   0x01, 0x00, 0x00, 0xc0, 0x01, 0x1f, 0x10, 0xc1, 0x01, 0x04, 0x10, 0xc1,
   0x01, 0x04, 0xa0, 0xc0, 0x01, 0x84, 0x43, 0xc0, 0x01, 0x04, 0x40, 0xc0,
   0x01, 0x04, 0x40, 0xc0, 0x01, 0x04, 0x40, 0xc0, 0x01, 0x00, 0x00, 0xc0,
   0x01, 0x00, 0x00, 0xc0, 0x01, 0x00, 0x00, 0xc0, 0xf9, 0xff, 0xff, 0xbf,
   0xfe, 0xff, 0xff, 0x7f};
