#define up_width 16
#define up_height 16
static char up_bits[] = {
   0xfe, 0x7f, 0x01, 0x80, 0x01, 0x80, 0x01, 0xc0, 0x01, 0xc0, 0x81, 0xc0,
   0xc1, 0xc1, 0xe1, 0xc3, 0xf1, 0xc7, 0xf9, 0xcf, 0x01, 0xc0, 0x01, 0xc0,
   0x01, 0xc0, 0x01, 0xc0, 0xf9, 0xff, 0xfe, 0x7f};
