#define use_width 32
#define use_height 16
static char use_bits[] = {
   0xfe, 0xff, 0xff, 0x7f, 0x01, 0x00, 0x00, 0x80, 0x01, 0x00, 0x00, 0x80,
   0x01, 0x00, 0x00, 0xc0, 0x81, 0xc8, 0xf9, 0xc0, 0x81, 0x28, 0x0a, 0xc0,
   0x81, 0x28, 0x08, 0xc0, 0x81, 0xc8, 0x79, 0xc0, 0x81, 0x08, 0x0a, 0xc0,
   0x81, 0x28, 0x0a, 0xc0, 0x01, 0xc7, 0xf9, 0xc0, 0x01, 0x00, 0x00, 0xc0,
   0x01, 0x00, 0x00, 0xc0, 0x01, 0x00, 0x00, 0xc0, 0xf9, 0xff, 0xff, 0xbf,
   0xfe, 0xff, 0xff, 0x7f};
