#define valid_width 48
#define valid_height 16
static char valid_bits[] = {
   0xfe, 0xff, 0xff, 0xff, 0xff, 0x7f, 0x01, 0x00, 0x00, 0x00, 0x00, 0x80,
   0x01, 0x00, 0x00, 0x00, 0x00, 0x80, 0x01, 0x00, 0x00, 0x00, 0x00, 0xc0,
   0x01, 0x88, 0x9c, 0xa0, 0x07, 0xc0, 0x01, 0x88, 0xa2, 0xa0, 0x08, 0xc0,
   0x01, 0x88, 0xa2, 0xa0, 0x08, 0xc0, 0x01, 0x88, 0xbe, 0xa0, 0x08, 0xc0,
   0x01, 0x88, 0xa2, 0xa0, 0x08, 0xc0, 0x01, 0x50, 0xa2, 0xa0, 0x08, 0xc0,
   0x01, 0x20, 0xa2, 0xaf, 0x07, 0xc0, 0x01, 0x00, 0x00, 0x00, 0x00, 0xc0,
   0x01, 0x00, 0x00, 0x00, 0x00, 0xc0, 0x01, 0x00, 0x00, 0x00, 0x00, 0xc0,
   0xf9, 0xff, 0xff, 0xff, 0xff, 0xbf, 0xfe, 0xff, 0xff, 0xff, 0xff, 0x7f};
