#define value_width 32
#define value_height 16
static char value_bits[] = {
   0xfe, 0xff, 0xff, 0x7f, 0x01, 0x00, 0x00, 0x80, 0x01, 0x00, 0x00, 0x80,
   0x01, 0x00, 0x00, 0xc0, 0x01, 0x0e, 0x9c, 0xcf, 0x01, 0x11, 0xa2, 0xc0,
   0x01, 0x10, 0xa0, 0xc7, 0x79, 0x08, 0x18, 0xc8, 0x01, 0x04, 0x20, 0xc8,
   0x01, 0xc2, 0xa2, 0xc8, 0x01, 0xdf, 0x1c, 0xc7, 0x01, 0x00, 0x00, 0xc0,
   0x01, 0x00, 0x00, 0xc0, 0x01, 0x00, 0x00, 0xc0, 0xf9, 0xff, 0xff, 0xbf,
   0xfe, 0xff, 0xff, 0x7f};
