#define view_width 32
#define view_height 16
static char view_bits[] = {
   0xfe, 0xff, 0xff, 0x7f, 0x01, 0x00, 0x00, 0x80, 0x01, 0x00, 0x00, 0x80,
   0x01, 0x00, 0x00, 0xc0, 0x11, 0x39, 0x5f, 0xc4, 0x11, 0x11, 0x41, 0xc4,
   0x11, 0x11, 0x41, 0xc4, 0x11, 0x11, 0x4f, 0xc5, 0xa1, 0x10, 0x41, 0xc5,
   0xa1, 0x10, 0x41, 0xc5, 0x41, 0x38, 0x9f, 0xc2, 0x01, 0x00, 0x00, 0xc0,
   0x01, 0x00, 0x00, 0xc0, 0x01, 0x00, 0x00, 0xc0, 0xf9, 0xff, 0xff, 0xbf,
   0xfe, 0xff, 0xff, 0x7f};
