#define windows_width 32
#define windows_height 16
static char windows_bits[] = {
   0xff, 0xff, 0xff, 0x3f, 0x01, 0x00, 0x00, 0x20, 0x01, 0x00, 0x00, 0xe0,
   0x81, 0x23, 0x72, 0xe0, 0x41, 0x24, 0x22, 0xe0, 0x41, 0x20, 0x22, 0xe0,
   0x41, 0x27, 0x22, 0xe0, 0x41, 0x24, 0x22, 0xe0, 0x41, 0x24, 0x22, 0xe0,
   0x81, 0xc7, 0x71, 0xe0, 0x01, 0x00, 0x00, 0xe0, 0x01, 0x00, 0x00, 0xe0,
   0x01, 0x00, 0x00, 0xe0, 0xff, 0xff, 0xff, 0xff, 0xf8, 0xff, 0xff, 0xff,
   0xf8, 0xff, 0xff, 0xff};
