#define xy_width 32
#define xy_height 16
static char xy_bits[] = {
   0xfe, 0xff, 0xff, 0x7f, 0x01, 0x00, 0x00, 0x80, 0x01, 0x00, 0x00, 0x80,
   0x01, 0x00, 0x00, 0xc0, 0x01, 0x11, 0x10, 0xc1, 0x01, 0x11, 0x10, 0xc1,
   0x01, 0x0a, 0xa0, 0xc0, 0x01, 0x84, 0x43, 0xc0, 0x01, 0x0a, 0x40, 0xc0,
   0x01, 0x11, 0x40, 0xc0, 0x01, 0x11, 0x40, 0xc0, 0x01, 0x00, 0x00, 0xc0,
   0x01, 0x00, 0x00, 0xc0, 0x01, 0x00, 0x00, 0xc0, 0xf9, 0xff, 0xff, 0xbf,
   0xfe, 0xff, 0xff, 0x7f};
